<svg width="1440" height="781" viewBox="0 0 1440 781" xmlns="http://www.w3.org/2000/svg" xmlns:xlink="http://www.w3.org/1999/xlink">
    <defs>
        <path id="a" d="M0 0h363.23v208.847H0z"/>
    </defs>
    <g fill="none" fill-rule="evenodd">
        <path fill="#E8E2DA" d="M0 .493h1440v780H0z"/>
        <g opacity=".05">
            <g fill="#1D1D1B">
                <path d="M1108.783 112.67c-3.615 1.763-7.105 2.913-9.879 3.354-1.392.217-2.6.264-3.6.092-.98-.17-1.835-.58-2.25-1.407l1.205-.588.065.133-.6.293-.625.246-5.084-12.738-.004-.016c-.803-2.344-.11-4.806 1.575-6.99 1.688-2.201 4.366-4.21 7.744-5.862 3.383-1.646 6.616-2.52 9.386-2.494 2.756.018 5.126.987 6.476 3.064l.007.015 6.913 11.846-1.157.678-6.902-11.833.579-.337-.562.365c-1.057-1.612-2.882-2.425-5.368-2.461-2.475-.028-5.544.777-8.785 2.361-3.244 1.579-5.764 3.5-7.268 5.472-1.506 1.98-1.989 3.918-1.37 5.744l-.633.217.622-.248 5.077 12.723-1.226.543-.064-.133 1.204-.588c.118.258.492.537 1.277.674 2.344.435 7.407-.749 12.66-3.33l.587 1.205zM1120.86 275.205c16.517 8.253 41.468 7.364 65.15-4.198 23.692-11.544 39.751-30.657 43.419-48.75l1.313.267c-3.805 18.652-20.155 37.98-44.144 49.687-23.994 11.696-49.294 12.682-66.336 4.194l.597-1.2z"/>
                <path d="M1115.187 94.253a104.4 104.4 0 0 1 2.989-1.022c13.391-4.39 26.085-6.013 35.977-5.517 4.946.25 9.193 1.029 12.495 2.279 3.291 1.251 5.681 2.975 6.788 5.23 1.316 2.713.696 6.044-1.292 9.666-5.987 10.86-24.677 25.374-48.987 37.25-16.206 7.9-31.83 13.096-44.05 15.112-6.113 1.007-11.374 1.221-15.466.558-4.075-.664-7.082-2.227-8.412-4.932-1.133-2.345-.972-5.423.18-8.948 3.486-10.56 16.118-25.61 34.92-37.552l.716 1.13c-12.397 7.863-22.079 17.134-28.126 25.438-3.027 4.15-5.141 8.06-6.236 11.403-1.103 3.347-1.158 6.095-.25 7.941 1.027 2.122 3.54 3.563 7.424 4.199 11.638 1.92 34.57-3.761 58.712-15.554 16.104-7.854 29.734-16.923 38.707-25.189 4.49-4.13 7.809-8.064 9.696-11.501 1.89-3.453 2.302-6.32 1.26-8.434-.861-1.788-2.936-3.384-6.06-4.563-9.367-3.57-27.722-3.268-47.58 3.257-.983.322-1.97.656-2.95 1.01l-.455-1.261zM966.447 199.098l.39-.545.426.513c.284.62.214 1.28.043 2.078-.552 2.368-2.492 6.072-5.276 9.99-3.07 4.285-6.19 7.516-8.295 8.569-.661.311-1.361.52-2.033.083l-.43-.512c-.28-.621-.21-1.282-.039-2.08.549-2.366 2.49-6.07 5.278-9.994 3.069-4.28 6.184-7.513 8.293-8.564.657-.313 1.361-.521 2.033-.083l-.39.545-.39.545.005-.006-.001.012-.003-.006.004-.006-.001.012c-.031-.018-.293 0-.67.19-1.645.778-4.832 3.97-7.79 8.14-1.816 2.546-3.26 5.022-4.154 6.997-.448.987-.759 1.853-.908 2.516-.164.662-.114 1.125-.059 1.193l.009.018-.033.023.025-.03.008.007-.033.023.025-.03-.007.007.002-.012.005.004-.007.008.002-.012c.03.018.296-.002.671-.192 1.645-.78 4.833-3.969 7.792-8.144 1.814-2.544 3.256-5.016 4.153-6.992.448-.988.756-1.852.908-2.516.164-.662.114-1.125.059-1.193l-.009-.018.032-.026-.024.033-.008-.007.032-.026-.024.033.39-.545z"/>
                <path d="M1165.7 266.23a157.994 157.994 0 0 0 14.886-6.342c28.888-14.09 50.806-35.54 62.945-58.824l.615-1.179.587 1.204-.603.295-.434-.507c34.587-29.731 54.307-56.611 63.707-79.413 9.398-22.804 8.493-41.51 1.899-55.039-10.9-22.34-37.414-30.73-59.56-19.937a48.162 48.162 0 0 0-4.594 2.564c-12.304 7.762-20.16 19.732-24.929 29.778a97.876 97.876 0 0 0-5.008 12.837 78.53 78.53 0 0 0-1.092 3.873c-.233.912-.33 1.403-.334 1.404l-.656-.137.648-.173.004.016.369 1.387-1.3-.607c-17.018-7.935-37.866-10.934-59.834-8.427l-.15-1.33c22.18-2.53 43.266.485 60.55 8.543l-.283.607-.648.173-.004-.016-.039-.153.031-.155c.03-.058 6.746-32.802 31.96-48.755a49.946 49.946 0 0 1 4.722-2.633c11.385-5.553 23.916-6.174 35.002-2.524 11.088 3.646 20.737 11.572 26.349 23.078 6.795 13.932 7.649 33.073-1.864 56.14-9.516 23.066-29.377 50.084-64.074 79.913l-.658.567-.387-.793.6-.293.596.31c-12.292 23.572-34.415 45.203-63.546 59.41a158.822 158.822 0 0 1-15.013 6.397l-.46-1.26zM1150.314 270.476c1.79-.297 3.571-.638 5.344-1.02l.614 1.777c-1.792.387-3.588.73-5.39 1.029l-.568-1.786zM1062.902 132.955c-16.274 16.556-27.007 35.88-30.781 55.092l-.129.652-.667-.128.123-.657.637.21c-.845 2.532-3.166 4.667-6.52 6.307-6.587 3.201-17.31 4.556-29.9 2.424-5.86-.996-11.749-2.236-16.807-2.904-5.05-.683-9.28-.734-11.642.444-5.657 2.752-11.019 8.144-14.508 13.65-1.75 2.751-3.031 5.53-3.665 7.992-.643 2.467-.617 4.594.104 6.055.134.275.29.529.472.759.404.498.915.637 1.992.493 1.58-.229 3.97-1.244 7.004-2.189 3.039-.948 6.758-1.816 11.132-1.73 20.09.393 34.833 9.19 46.884 17.054 6.027 3.931 11.389 7.634 16.388 9.953 5.006 2.327 9.583 3.263 14.183 1.836l.198.64-.293-.601.024-.012.45-.22.337.37c20.884 22.957 57.818 31.873 96.569 23.85l.273 1.31c-39.092 8.09-76.506-.848-97.831-24.26l.495-.45.294.604-.024.012-.044.022-.052.014c-5.027 1.565-10.001.497-15.143-1.899-15.432-7.211-33.187-26.313-62.736-26.884-5.571-.107-10.045 1.398-13.477 2.592-1.72.597-3.17 1.122-4.432 1.312-1.233.206-2.468.017-3.244-.989a5.622 5.622 0 0 1-.624-1c-.924-1.91-.877-4.336-.197-6.975 2.071-7.91 9.944-18.127 18.884-22.513 2.91-1.398 7.267-1.237 12.406-.568 5.132.68 11.028 1.924 16.853 2.91 12.366 2.107 22.883.728 29.09-2.307 3.173-1.544 5.176-3.505 5.833-5.522l.187-.556.592.11-.126.659-.657-.13c3.838-19.518 14.71-39.053 31.138-55.771l.957.94z"/>
                <path d="m1294.41 67.317-.538.398c-8.737-11.817-24.507-15.307-37.971-8.747a34.472 34.472 0 0 0-3.318 1.856c-8.784 5.57-14.092 15.667-17.236 25.2-3.152 9.525-4.144 18.447-4.424 21.583l-.666-.06.426-.515c7.535 6.228 13.695 13.856 18.045 22.783 6.66 13.647 8.31 28.745 5.674 43.893l-.66-.114-.473-.476c23.06-22.871 36.326-43.19 42.62-60.2 6.297-17.013 5.627-30.688.904-40.372a31.114 31.114 0 0 0-2.92-4.83l.538-.399.538-.398a32.32 32.32 0 0 1 3.048 5.04c4.925 10.098 5.539 24.174-.852 41.424-6.387 17.256-19.774 37.718-42.932 60.688l-1.491 1.478.36-2.069c2.59-14.913.966-29.701-5.558-43.077-4.267-8.749-10.298-16.22-17.693-22.34l-.273-.222.033-.353c.284-3.194 1.284-12.204 4.482-21.883 3.202-9.678 8.595-20.058 17.79-25.91a34.87 34.87 0 0 1 3.45-1.931c14-6.831 30.505-3.199 39.636 9.155l-.538.398zM1139.602 226.143l-.652.03.585-.286.067.256-.652.03.585-.286-.582.284.204-.617.378.333-.582.284.204-.617-.177.53-.096-.557.273.027-.177.53-.096-.557.022-.007c.198-.053.858-.283 2.22-.644l1.022-.271-.191 1.042.143.648.26.404.058.067-.262.31.182-.362.08.052-.262.31.182-.362-.286.57-.277-.567c.36-.14.505-.016.563-.003l-.286.57-.277-.567c1.104-.538 1.723-.943 2.086-1.124l.164-.069.358-.039.012.002c1.206.213 1.915 1.05 2.6 1.5.339.238.645.393.968.44.327.046.702.013 1.253-.255.834-.4 2.011-1.366 3.592-3.247l.2-.24.317.003c.773.015 1.544.393 2.29 1.022.749.634 1.464 1.545 2.035 2.717.595 1.219 1.03 2.718 1.152 4.478.203 2.948-.098 7.563-1.166 11.058l-.642-.196.396-.541c.23.188.878.315 1.766.175.882-.13 1.976-.484 3.106-1.035 1.55-.756 3.177-1.883 4.498-3.267l.483.464-.498-.45c2.615-2.897 3.372-6.896 4.462-11.17 1.09-4.26 2.569-8.798 6.857-12.465l.435.51.09.663c-6.403.834-10.64.285-13.472-.828-2.838-1.11-4.24-2.814-4.882-4.145-.534-1.095-.572-1.922-.576-1.99l-.022-.692.695-.002c.527-.001.928-.102 1.23-.249.504-.25.773-.63.903-1.063.13-.43.078-.906-.074-1.21l-.103-.172-.492-.65.73-.356c.885-.454 1.114-1.254.774-1.99a1.61 1.61 0 0 0-.745-.76l-.74-.031-.293-.6.448.498-.555.498-.63.564-.406-.743-.389-.752c-2.652-5.46-3.378-13.167-2.785-21.037.595-7.872 2.528-15.902 5.323-21.968l1.154-2.507.123 2.76c.484 10.971 2.434 16.953 3.903 19.957.495 1.015.935 1.69 1.244 2.108l.352.436.086.086.01.014-.242.268.234-.279.008.01-.242.269.234-.279-.383.454.36-.469.023.015-.383.454.36-.469-.403.523.298-.589.106.066-.404.523.298-.589.01.003.008.003-.307.572-.066-.646.373.074-.307.572-.066-.646.044.429-.096-.422.052-.007.044.429-.096-.422c.046-.004.795-.27 1.73-.657a63.568 63.568 0 0 0 3.431-1.542c.61-.297 1.228-.613 1.819-.934l.32.587-.497.447c-.295-.32-1.8-1.912-4.193-6.825l-.347-.728c-3.147-6.72-2.38-14.785-5.465-21.034l-.123-.252.001.003c-1.405-2.768-2.923-4.214-4.283-4.84-1.366-.623-2.611-.495-3.682.02-1.548.762-2.03 1.726-2.202 2.198l-.176.496-.52-.054a1.744 1.744 0 0 0-.936.163c-.597.292-.95.885-.97 1.503l-.032.836-.807-.214a33.9 33.9 0 0 0-6.163-1.034c-.753-.05-1.35-.064-1.754-.06-.404-.001-.604.016-.606.013l-.043-.667.658.118c-2.152 11.912-5 16.554-9.705 25.39-3.357 6.31-5.735 12.773-7.27 17.653a108.842 108.842 0 0 0-1.687 5.914 56.482 56.482 0 0 0-.535 2.243l-.206.983-.83-.57c-.498-.336-1.052-.399-1.517-.172-.36.179-.613.5-.735.926-.116.423-.08.933.154 1.412.318.658.923 1.051 1.482 1.101l2.367.227-2.14 1.043-.21.326.115.724.488.498.421.022.84-.41.12.927c.23 1.766.638 3.128 1.164 4.205 1.329 2.717 3.424 3.754 5.768 4.994l-.315.594.292-.604c2.264 1.097 3.3 2.14 3.758 3.071.294.596.311 1.134.287 1.438-.055.818-.524 3.212-.629 3.757l-.658-.126.665-.078.058.495-.664.079.335-.581c.489.296 1.333.36 2.045.295a8.44 8.44 0 0 0 .9-.128l.353-.08.703-.197.131.72c.063.332.157 1.132.238 1.785l-1.333.16a41.364 41.364 0 0 0-.222-1.702l.66-.12.179.645c-.027.006-.659.182-1.5.252-.841.062-1.901.052-2.822-.47l-.291-.169-.1-.827-.01-.104.018-.105c.103-.504.576-3.002.607-3.584.01-.192.014-.414-.154-.767-.26-.54-1.02-1.43-3.139-2.455l-.004-.001-.015-.008c-2.289-1.209-4.815-2.445-6.346-5.592-.601-1.234-1.043-2.74-1.29-4.62l.665-.085.293.6c-1.04.482-2.195-.101-2.7-1.137a2.457 2.457 0 0 1-.22-1.584c.1-.51.415-1.005.932-1.257l.295.603-.064.665c-1.062-.105-2.042-.791-2.557-1.848-.742-1.528-.289-3.386 1.198-4.13.953-.464 2.038-.297 2.862.275l-.38.551-.653-.139c.01-.034 2.8-13.334 9.62-26.165 4.731-8.9 7.431-13.23 9.57-24.998l.093-.514.522-.035c.053-.004 3.742-.243 8.95 1.125l-.171.647-.668-.025a3.08 3.08 0 0 1 1.722-2.657 3.07 3.07 0 0 1 1.653-.29l-.067.667-.632-.223c.253-.735 1.002-2.045 2.88-2.957 1.366-.674 3.1-.838 4.829-.034 1.732.804 3.426 2.512 4.919 5.453l.13.267c3.253 6.738 2.486 14.814 5.472 21.049l.343.711c2.368 4.848 3.723 6.228 3.982 6.519l.566.628-.743.407c-.613.335-1.246.659-1.873.964a62.6 62.6 0 0 1-3.699 1.654c-.5.204-.92.365-1.228.478l-.376.129-.15.04-.104.018-.403-.075.317-.59-.302.598-.107-.069-.254-.25c-.336-.374-1.014-1.238-1.796-2.841-1.567-3.213-3.55-9.38-4.036-20.486l.667-.029.608.278c-2.71 5.874-4.619 13.786-5.204 21.507-.589 7.722.164 15.258 2.655 20.35l.363.698-.59.321-.446-.5.555-.498.069-.063.082-.04c1.274-.588 2.667.164 3.277 1.409.333.683.376 1.453.128 2.138-.247.688-.777 1.284-1.518 1.642l-.293-.6.535-.405.24.393c.31.646.373 1.418.157 2.171a3.023 3.023 0 0 1-1.604 1.892c-.509.249-1.117.384-1.819.386v-.67l.668-.026.001.01c.007.089.066.675.44 1.442.524 1.059 1.623 2.479 4.168 3.486 2.54 1.002 6.553 1.562 12.806.746l2.235-.292-1.71 1.465c-3.974 3.402-5.35 7.564-6.433 11.78-1.088 4.197-1.83 8.449-4.763 11.732l-.01.012-.004.006c-1.45 1.517-3.193 2.718-4.878 3.544-1.233.597-2.432 1-3.498 1.156-1.058.15-2.009.101-2.75-.42l-.386-.28.14-.457c1-3.242 1.308-7.809 1.111-10.57-.114-1.592-.504-2.926-1.02-3.985-.494-1.019-1.114-1.786-1.7-2.28-.582-.504-1.145-.713-1.432-.708l.004-.669.514.43c-1.65 1.952-2.913 3.04-4.03 3.589-.732.36-1.425.471-2.04.376-.927-.145-1.573-.68-2.122-1.108-.552-.441-1.013-.77-1.455-.836l.103-.658-.09.663.076-.55.177.529-.253.02.076-.549.177.529-.004.006c-.2.093-.943.566-2.082 1.122-.374.149-.54.02-.626-.007l-.468-.427-.376-.604c-.19-.398-.359-.902-.256-1.48l.657.124.173.648a42.52 42.52 0 0 0-1.851.529l-.404.12-.22.037-.262-.036-.402-.35-.066-.272 1.337-.059zm16.29-75.89c.363-.508.45-1.165.168-1.742l.6-.293-.55.382-.368-.531-.232-.334.19-.36a3.067 3.067 0 0 1 1.368-1.348c.922-.446 1.967-.344 2.867.103.904.45 1.703 1.246 2.22 2.29v.004l.014.026-.27.121.265-.13.005.01-.27.12.265-.13c.373.764.972 2.427 1.335 5.462l.167 1.424-1.2-.785a36.352 36.352 0 0 0-6.285-3.274l.5-1.243a37.488 37.488 0 0 1 6.516 3.395l-.366.564-.665.078c-.346-2.918-.919-4.444-1.206-5.033l-.013-.027.274-.122-.27.131-.004-.009.274-.122-.27.131.002.003c-.391-.794-.995-1.379-1.612-1.682-.622-.308-1.215-.33-1.686-.1a1.73 1.73 0 0 0-.768.766l-.595-.31.55-.383.369.531.03.04.023.048a3.031 3.031 0 0 1-.29 3.115l-1.083-.787z"/>
            </g>
            <path d="M834.5 588.448c11.005 3.663 23.704 5.734 37.329 5.732 21.807.002 41.23-5.303 55.15-13.939 13.926-8.645 22.299-20.546 22.296-33.803.003-13.252-8.37-25.155-22.296-33.8-13.92-8.632-33.343-13.937-55.15-13.937-21.805 0-41.229 5.305-55.148 13.936-13.926 8.646-22.299 20.549-22.297 33.801.003 8.98 3.823 17.305 10.62 24.45a.768.768 0 0 1-1.111 1.059c-7.008-7.363-11.045-16.082-11.042-25.509.004-13.943 8.809-26.293 23.023-35.102 14.223-8.819 33.903-14.166 55.955-14.166s41.734 5.347 55.957 14.166c14.214 8.81 23.018 21.159 23.023 35.102-.005 13.948-8.81 26.3-23.023 35.107-14.223 8.819-33.905 14.169-55.957 14.169-13.782 0-26.637-2.095-37.814-5.81a.767.767 0 0 1 .484-1.456m-23.885-12.455c3.963 3.137 8.567 5.96 13.703 8.39.385.18.546.636.364 1.02a.765.765 0 0 1-1.019.366c-5.231-2.476-9.935-5.354-14-8.574a.762.762 0 0 1-.124-1.076.762.762 0 0 1 1.076-.126" fill="#1D1D1B"/>
            <g transform="translate(789.53 431.493)">
                <mask id="b" fill="#fff">
                    <use xlink:href="#a"/>
                </mask>
                <path d="M82.301 66.343v-.767c22.986.005 43.497 5.552 58.316 14.701 14.81 9.14 23.982 21.952 23.987 36.415v14.492c0 16.977-9.12 32.089-23.937 42.902-14.822 10.823-35.361 17.396-58.366 17.396-23.004 0-43.543-6.573-58.365-17.396C9.12 163.273-.004 148.161 0 131.184v-14.492c.005-14.463 9.177-27.276 23.987-36.415 14.82-9.149 35.33-14.696 58.315-14.7v1.533c-22.735-.004-42.995 5.507-57.51 14.473-14.527 8.978-23.26 21.337-23.258 35.11v14.49c0 16.406 8.788 31.06 23.308 41.666 14.513 10.598 34.746 17.099 57.46 17.099 22.715 0 42.948-6.501 57.461-17.099 14.52-10.607 23.303-25.26 23.308-41.665v-14.492c.002-13.772-8.731-26.131-23.258-35.109-14.515-8.966-34.775-14.477-57.51-14.473v-.767zm-70.603 48.604h.767c-.01 10.908 7.65 20.926 20.295 28.257 12.632 7.318 30.166 11.877 49.541 11.874 19.376.003 36.91-4.556 49.54-11.874 12.646-7.33 20.306-17.349 20.297-28.257.01-10.908-7.65-20.926-20.297-28.254-12.63-7.318-30.164-11.877-49.54-11.875-19.375-.002-36.909 4.557-49.541 11.875-12.644 7.328-20.304 17.346-20.295 28.254h-1.534c.007-11.678 8.154-22.109 21.064-29.581 12.92-7.48 30.688-12.077 50.306-12.082 19.619.005 37.385 4.602 50.307 12.082 12.91 7.472 21.052 17.903 21.064 29.581-.012 11.68-8.154 22.111-21.064 29.584-12.922 7.48-30.688 12.077-50.307 12.081-19.618-.004-37.386-4.601-50.306-12.081-12.91-7.473-21.057-17.904-21.064-29.584h.767zm11.327 22.085C35.89 125.88 57.63 118.616 82.3 118.611c24.67.005 46.412 7.268 59.27 18.421l-1.002 1.159c-12.456-10.828-33.9-18.053-58.268-18.049-24.371-.004-45.813 7.221-58.27 18.049l-1.002-1.159h-.004zm133.603 20.307c-1.035 14.632-9.602 27.537-22.893 36.743-13.29 9.21-31.32 14.765-51.434 14.765-20.114 0-38.146-5.554-51.438-14.765-13.286-9.206-21.853-22.111-22.888-36.743l1.524-.11c1 14.084 9.24 26.578 22.235 35.592 12.998 9.007 30.73 14.494 50.567 14.494s37.57-5.487 50.563-14.494c12.996-9.014 21.238-21.508 22.235-35.591l1.529.109zm-43.304 13.034h.767a5.189 5.189 0 0 1-4.058 5.055c-8.595 1.954-17.927 3.013-27.732 3.013-9.804 0-19.138-1.059-27.731-3.013a5.189 5.189 0 0 1-4.058-5.055v-4.362l.961.249c9.399 2.455 19.804 3.823 30.828 3.823 11.025 0 21.428-1.368 30.829-3.823l.961-.25v4.363h-1.534V167h.767l.195.743c-9.538 2.49-20.064 3.873-31.218 3.873-11.153 0-21.683-1.382-31.217-3.873l.195-.743h.767v3.372c0 1.71 1.19 3.179 2.866 3.564 8.477 1.925 17.694 2.97 27.39 2.97 9.695 0 18.912-1.045 27.39-2.97a3.664 3.664 0 0 0 2.865-3.564h.767zm.767-3.016v10.141a5.187 5.187 0 0 1-4.058 5.056c-8.595 1.954-17.927 3.015-27.732 3.015-9.804 0-19.138-1.061-27.731-3.015a5.187 5.187 0 0 1-4.058-5.056v-10.333h1.534v10.333c0 1.71 1.19 3.182 2.866 3.565 8.477 1.925 17.694 2.975 27.39 2.975 9.695 0 18.912-1.05 27.39-2.975a3.662 3.662 0 0 0 2.865-3.565v-10.141h1.534zM82.301 66.443v.767c-11.02 0-21.43 1.356-30.828 3.811l-.961.25v-1.646a5.191 5.191 0 0 1 4.058-5.058c8.593-1.95 17.927-3.01 27.731-3.01 9.805 0 19.137 1.06 27.732 3.01a5.195 5.195 0 0 1 4.058 5.058v1.645l-.961-.249c-9.399-2.455-19.81-3.81-30.829-3.81V65.675c11.144 0 21.684 1.37 31.218 3.861l-.195.743h-.767v-.655c0-1.707-1.19-3.18-2.866-3.564-8.477-1.921-17.694-2.973-27.39-2.973-9.695 0-18.912 1.052-27.39 2.973a3.664 3.664 0 0 0-2.865 3.564v.655h-.767l-.195-.743c9.534-2.49 20.072-3.86 31.217-3.86v.766zm93.356 62.96c1.23-.575 2.185-1.64 2.857-3.175.662-1.529 1.02-3.512 1.018-5.784.003-4.06-1.127-9.02-3.43-13.983-2.097-4.507-4.814-8.276-7.62-10.887-2.805-2.624-5.692-4.049-8.026-4.037-.782 0-1.503.152-2.175.463l-.646-1.392a6.66 6.66 0 0 1 2.82-.605c2.945.014 6.094 1.679 9.071 4.447 2.978 2.776 5.794 6.696 7.964 11.365 2.387 5.14 3.576 10.29 3.576 14.629 0 2.43-.372 4.607-1.149 6.395-.77 1.785-1.976 3.196-3.612 3.953l-.648-1.389zM309.09 5.443l-.378-.668A36.261 36.261 0 0 1 326.697 0c13.693-.002 26.907 7.736 33.126 21.121a36.315 36.315 0 0 1 3.408 15.347c.004 14.769-9.033 28.786-23.885 34.259l-176.494 65 .087-1.186c.079-1.118.131-2.236.131-3.357v-14.492c-.005-8.339-3.21-16.13-8.952-23l-.591-.7L308.712 4.775l.378.667.38.668L155.085 93.87l-.378-.67.589-.489c5.927 7.081 9.308 15.24 9.308 23.98v14.492c0 1.168-.052 2.32-.138 3.467l-.762-.055-.266-.72 175.378-64.588c14.226-5.24 22.88-18.67 22.88-32.82 0-4.916-1.042-9.919-3.264-14.701-5.955-12.825-18.614-20.233-31.735-20.233A34.742 34.742 0 0 0 309.47 6.11l-.38-.668z" fill="#1D1D1B" mask="url(#b)"/>
            </g>
            <path d="M878.597 639.054c7.385 8.004 17.942 22.76 22.973 33.214a.762.762 0 0 1-.356 1.021.764.764 0 0 1-1.023-.356c-4.913-10.23-15.468-24.989-22.722-32.84a.768.768 0 0 1 1.128-1.04" fill="#1D1D1B"/>
            <path d="M910.708 631.807c1.002 1.653.997 1.722 1.878 3.346a27.804 27.804 0 0 1 3.07 9.239l2.477 16.904c.045.302.064.608.064.917-.04 4.015-3.329 8.766-7.788 11.485-1.98 1.192-3.913 1.793-5.62 1.795-1.224 0-2.342-.316-3.213-.997-.874-.68-1.446-1.712-1.622-2.95l-2.38-16.205c-.51-3.493-1.597-6.891-3.35-10.061-1.287-2.344-2.453-4.906-4.089-6.943l1.197-.96c1.793 2.247 2.985 4.895 4.236 7.165 1.843 3.338 2.992 6.914 3.524 10.578l2.377 16.206c.14.916.513 1.534 1.054 1.959.541.425 1.304.674 2.265.674 1.337.005 3.033-.494 4.83-1.574 4.082-2.427 7.088-7.02 7.048-10.172l-.05-.694-2.477-16.906a26.177 26.177 0 0 0-2.9-8.726c-.906-1.667-.854-1.65-1.844-3.287l1.313-.793zM852.282 637.42c.798 3.625 3.868 7.615 8.632 10.896 4.756 3.289 11.176 5.882 18.568 6.843 1.363.18 8.054.463 11.832.618l-.066 1.534c-3.809-.162-10.4-.43-11.963-.632-7.63-.995-14.268-3.664-19.243-7.097-4.972-3.443-8.315-7.644-9.256-11.828l1.496-.334z" fill="#1D1D1B"/>
            <g fill="#1D1D1B">
                <path d="M620.546 116.768v-.508c18.114 0 34.593 2.333 46.919 6.163 6.163 1.917 11.291 4.205 15.077 6.785 3.778 2.576 6.246 5.456 6.979 8.604l-.494.113-.375-.344c2.569-2.801 3.939-5.75 3.939-8.798 0-3.63-1.928-7.136-5.533-10.39-10.812-9.777-36.543-16.78-66.512-16.766-19.982 0-38.071 3.092-51.121 8.071-6.524 2.485-11.785 5.445-15.388 8.695-3.606 3.254-5.534 6.76-5.534 10.39 0 3.049 1.37 5.997 3.939 8.798l-.375.344-.493-.113c.73-3.148 3.198-6.028 6.978-8.604 11.347-7.716 34.815-12.936 61.994-12.948v1.016c-18.029 0-34.424 2.327-46.617 6.118-6.1 1.892-11.144 4.155-14.806 6.651-3.67 2.5-5.927 5.223-6.562 7.994l-.216.94-.652-.71c-2.685-2.923-4.205-6.121-4.205-9.486 0-4.007 2.133-7.78 5.87-11.144 11.216-10.082 37.052-17.014 67.188-17.027 20.09 0 38.276 3.1 51.484 8.137 6.604 2.519 11.965 5.52 15.707 8.89 3.736 3.364 5.87 7.137 5.87 11.144 0 3.365-1.52 6.563-4.206 9.486l-.652.71-.216-.94c-.635-2.77-2.896-5.495-6.562-7.994-11-7.51-34.39-12.778-61.425-12.77v-.507zM603.144 215.488l-.458-.183h.494l-.036.183-.458-.183h.494-.494l.341-.358.153.358h-.494l.341-.358-.294.308.12-.414.174.106-.294.308.12-.414.016.003c.156.03.683.094 1.728.3l.788.155-.477.646-.117.488.042.364.017.064-.28.127.24-.191.04.064-.28.127.24-.191-.38.297v-.477c.29.022.348.152.38.18l-.38.297v-.477c.93-.003 1.485-.073 1.795-.075.095.016.125-.042.391.102l.009.003h-.003c.752.546.957 1.354 1.273 1.886.336.541.544.838 1.456.865.7.003 1.823-.263 3.526-1.017l.219-.098.213.106c1.013.546 1.684 2.014 1.706 3.988 0 1.027-.205 2.194-.704 3.434-.844 2.078-2.583 5.118-4.472 7.148l-.371-.347.45-.238c.093.208.493.51 1.142.71.646.205 1.506.324 2.46.324 1.31 0 2.79-.225 4.15-.732l.177.477-.191-.472c2.745-1.103 4.59-3.578 6.756-6.13 2.16-2.54 4.677-5.142 8.818-6.215l.127.49-.16.484c-4.641-1.562-7.345-3.343-8.907-5.043-1.564-1.697-1.953-3.326-1.95-4.446.003-.924.253-1.5.272-1.545l.214-.48.471.228c.36.177.669.24.924.24.427-.002.735-.171.968-.423.23-.25.355-.591.352-.85l-.017-.155-.116-.604h.616c.754-.014 1.176-.483 1.19-1.099 0-.31-.106-.585-.256-.765l-.493-.266v-.508l.136.488-.547.153-.613.172-.03-.638-.014-.64c.036-9.182 8.201-22.037 16.023-28.464l1.623-1.326-.835 1.922c-3.317 7.636-3.975 12.362-3.975 14.898 0 .857.075 1.464.147 1.85l.097.416.03.088.004.009-.264.108.258-.117.006.009-.264.108.258-.117-.447.203.389-.302.058.1-.447.202.389-.302.01.016.01.011-.409.275.17-.463.238.188-.408.275.17-.463-.114.31.075-.321.039.01-.114.311.075-.321c.033.01.63.077 1.395.124.782.05 1.797.092 2.848.092.52 0 1.046-.011 1.557-.036l.024.507-.488.142c-.094-.32-.59-1.903-.588-6.044l.003-.61c.089-5.63 3.29-10.87 3.267-16.151l-.002-.216c-.036-2.352-.588-3.842-1.31-4.721-.72-.877-1.614-1.201-2.515-1.207-1.31.006-1.956.5-2.233.763l-.286.278-.335-.208a1.288 1.288 0 0 0-.69-.2c-.503 0-.938.286-1.16.702l-.3.56-.48-.413a25.642 25.642 0 0 0-3.855-2.755 19.227 19.227 0 0 0-1.173-.627c-.278-.133-.416-.188-.416-.19l.191-.47.41.3c-5.43 7.403-8.914 9.622-15.055 14.076-4.388 3.187-8.157 6.801-10.823 9.616a84.107 84.107 0 0 0-3.117 3.467c-.724.855-1.11 1.351-1.11 1.351l-.468.602-.375-.663c-.227-.391-.585-.618-.976-.618-.6.002-1.168.577-1.173 1.398 0 .557.277 1.023.64 1.242l1.543.94h-1.806l-.252.153-.164.532.166.502.283.156h.707l-.224.668c-.433 1.284-.605 2.347-.605 3.257.003 2.293 1.085 3.697 2.269 5.317l-.41.3.399-.314c1.176 1.503 1.536 2.557 1.54 3.345.002.502-.164.873-.278 1.07l-.006.011.003-.005c-.313.535-1.426 2.01-1.68 2.352l-.406-.308.48.164-.122.358-.48-.164.422-.283c.236.363.788.688 1.292.88.253.1.489.168.658.213l.263.06.55.103-.153.536c-.07.238-.266.818-.433 1.292l-.96-.338c.164-.458.37-1.06.417-1.232l.488.139-.092.5c-.02-.006-.51-.095-1.106-.328-.591-.236-1.31-.596-1.767-1.26l-.139-.207.203-.597.024-.077.05-.067c.239-.308 1.39-1.85 1.61-2.24l.44.251-.444-.246c.07-.13.147-.28.15-.577.003-.455-.222-1.315-1.323-2.718l-.008-.012-.003-.002c-1.16-1.584-2.466-3.265-2.463-5.916 0-1.04.197-2.214.657-3.578l.48.16v.508c-.87-.017-1.462-.799-1.464-1.673 0-.435.133-.84.377-1.153.238-.314.616-.547 1.054-.547v.508l-.264.432c-.69-.424-1.126-1.217-1.128-2.107.002-1.287.929-2.402 2.188-2.414.802 0 1.487.472 1.858 1.135l-.44.25-.4-.311c.017-.022 6.34-8.155 15.252-14.634 6.185-4.49 9.464-6.546 14.836-13.854l.233-.32.366.15c.036.014 2.63 1.08 5.722 3.74l-.33.385-.449-.239a2.334 2.334 0 0 1 2.058-1.24c.452 0 .874.134 1.226.35l-.269.433-.355-.364c.416-.413 1.362-1.053 2.943-1.05a4.183 4.183 0 0 1 3.303 1.58c.913 1.12 1.498 2.849 1.537 5.348l.003.23c-.025 5.67-3.232 10.917-3.268 16.162l-.003.6c.003 4.085.47 5.483.55 5.76l.18.619-.644.03a34.47 34.47 0 0 1-1.606.036c-1.148 0-2.246-.05-3.064-.103-.41-.027-.75-.058-.996-.083l-.3-.036-.113-.022-.078-.022-.258-.2.422-.283-.403.31-.06-.105c-.073-.166-.358-.984-.364-2.77 0-2.713.702-7.572 4.058-15.303l.466.203.322.394c-7.614 6.19-15.685 19.06-15.652 27.675l.014.596-.508.023-.136-.489.547-.152.066-.02h.07c1.06.023 1.76.993 1.764 2.047 0 .577-.228 1.118-.627 1.501-.397.386-.954.613-1.578.613v-.508l.499-.097.033.35a2.323 2.323 0 0 1-.616 1.53c-.393.44-.998.76-1.72.758-.43 0-.89-.11-1.367-.341l.222-.458.463.205-.019.056c-.05.139-.164.527-.164 1.079.006.896.283 2.23 1.684 3.761 1.398 1.528 3.947 3.242 8.479 4.765l1.62.54-1.653.43c-3.836 1.002-6.158 3.38-8.299 5.892-2.138 2.502-4.058 5.153-7.148 6.415l-.008.003-.006.003a13.22 13.22 0 0 1-4.504.793c-1.037 0-1.989-.127-2.765-.371-.771-.253-1.404-.6-1.737-1.201l-.169-.322.247-.264c1.761-1.88 3.49-4.887 4.272-6.834.454-1.123.632-2.16.632-3.054.02-1.722-.716-2.906-1.146-3.078l.228-.455.205.463c-1.77.782-2.993 1.104-3.936 1.107-1.259.027-1.994-.702-2.343-1.384-.367-.691-.586-1.304-.968-1.55l.29-.417-.285.419.239-.347-.056.422-.183-.075.239-.347-.056.422h-.003c-.169-.003-.832.072-1.794.075-.3-.023-.372-.164-.422-.211l-.177-.447-.056-.54c.003-.333.056-.733.316-1.093l.408.302-.097.5c-.718-.142-1.165-.212-1.44-.256l-.313-.05-.16-.05-.167-.108-.158-.374.036-.195.943.378zm36.32-46.29c.42-.227.694-.643.694-1.131h.508l-.502.077-.075-.485-.047-.305.25-.183a2.342 2.342 0 0 1 1.38-.463c.774 0 1.457.418 1.92 1.023.466.608.746 1.415.749 2.3v.019c0 .649-.144 1.978-.907 4.16l-.358 1.027-.558-.932a27.171 27.171 0 0 0-3.192-4.319l.754-.682a28.515 28.515 0 0 1 3.31 4.48l-.436.26-.48-.166c.735-2.1.852-3.329.852-3.828v-.022l.188.005h-.188v-.005l.188.005h-.188c0-.668-.22-1.27-.538-1.683-.322-.414-.719-.627-1.115-.627-.28 0-.541.094-.783.269l-.3-.41.503-.078.075.485.005.039v.039c0 .885-.507 1.642-1.231 2.025l-.477-.894z"/>
                <path d="M669.436 212.15c1.628-2.488 3.218-4.957 4.763-7.691 10.87-19.255 19.595-36.801 22.264-60.702l.033-.285.26-.12c9.334-4.274 20.24-7.68 28.508-7.685 3.62 0 6.754.652 9.034 2.25 2.283 1.594 3.625 4.17 3.614 7.73-.017 7.616-5.561 17.482-16.45 28.754-10.898 11.269-27.188 23.92-48.828 36.939-21.337 12.84-35.705 23.814-44.719 32.465-4.507 4.325-7.677 8.069-9.708 11.159-2.033 3.09-2.91 5.536-2.904 7.183.006 1.043.32 1.74.88 2.222.56.483 1.436.766 2.632.766 1.023 0 1.661-.164 2.116-.444.788-.466 1.223-1.484 1.936-3.184 1.07-2.533 2.801-6.357 7.897-11.35 5.097-5 13.554-11.203 28.13-18.644 24.583-12.548 47.809-25.679 64.856-39.969 17.058-14.298 27.883-29.71 27.878-46.819-.009-8.861-2.924-14.336-7.35-17.673-4.436-3.334-10.48-4.524-16.762-4.521-7.114-.003-14.506 1.517-20.109 3.042-2.8.76-5.156 1.523-6.809 2.092-1.653.571-2.593.948-2.596.948l-.696.278v-.75c0-3.977-2.064-7.81-5.908-11.357-11.527-10.665-38.93-18.29-70.853-18.276-21.282 0-40.55 3.37-54.452 8.793-6.95 2.712-12.559 5.938-16.4 9.483-3.844 3.547-5.908 7.38-5.908 11.358.005 32.382 10.007 53.104 23.107 76.317 4.08 7.225 8.501 12.592 13.017 21.429 4.995 9.788 4.366 16.228 6.915 23.007 1.747 4.693 6.232 8.77 12.273 11.658 6.04 2.887 13.613 4.582 21.448 4.582v1.015c-7.982 0-15.687-1.72-21.884-4.682-6.193-2.962-10.897-7.17-12.789-12.218-2.63-7.073-1.972-13.33-6.867-22.902-4.463-8.737-8.86-14.07-12.995-21.39-13.12-23.23-23.246-44.215-23.24-76.816 0-4.346 2.26-8.443 6.235-12.104 11.932-10.976 39.45-18.531 71.54-18.545 21.394.003 40.76 3.378 54.821 8.862 7.034 2.746 12.743 6.013 16.72 9.683 3.975 3.66 6.235 7.758 6.235 12.104h-.508l-.188-.472c.03-.008 15.382-6.149 29.891-6.154 6.402 0 12.665 1.195 17.372 4.726 4.71 3.53 7.763 9.408 7.755 18.483-.006 17.571-11.09 33.22-28.241 47.596-17.16 14.381-40.44 27.531-65.048 40.096-22.12 11.294-29.96 19.66-33.353 25.14-1.703 2.749-2.29 4.774-3.045 6.238-.377.732-.821 1.348-1.495 1.761-.674.414-1.523.594-2.646.594-1.348 0-2.48-.316-3.293-1.01-.815-.69-1.24-1.742-1.234-2.993.008-1.991.985-4.554 3.07-7.738 6.269-9.533 22.672-24.63 54.755-43.94 21.582-12.983 37.807-25.595 48.62-36.773 10.819-11.172 16.18-20.935 16.164-28.05-.011-3.32-1.179-5.478-3.184-6.9-2.011-1.42-4.948-2.067-8.449-2.064-7.999-.006-18.847 3.353-28.086 7.594l-.21-.463.504.055c-2.687 24.1-11.508 41.819-22.391 61.09-1.562 2.768-3.165 5.256-4.796 7.747l-.849-.555z"/>
                <path d="M620.546 265.136c7.835 0 15.407-1.695 21.448-4.585 6.044-2.887 10.529-6.964 12.28-11.657 1.985-5.3 2.04-10.243 4.34-17.006l.96.328c-2.255 6.601-2.3 11.521-4.352 17.033-1.892 5.048-6.599 9.255-12.79 12.22-6.199 2.963-13.904 4.682-21.886 4.682v-1.015zM694.186 197.021a184.274 184.274 0 0 0-13.072-3.947l.258-.981a183.427 183.427 0 0 1 13.144 3.969l-.33.96z"/>
                <path d="M559.977 193.075c-20.11 5.283-36.987 13.119-48.803 22.583-11.82 9.469-18.558 20.53-18.558 32.301-.017 17.047 14.195 34.46 37.36 47.582 23.155 13.12 55.188 21.937 90.571 21.937 35.38 0 67.414-8.817 90.568-21.937 23.165-13.122 37.378-30.535 37.36-47.582.018-17.43-14.827-33.35-38.947-44.736l.436-.918c24.264 11.461 39.508 27.593 39.527 45.654-.02 17.646-14.559 35.245-37.877 48.464-23.332 13.22-55.517 22.07-91.067 22.07-35.552 0-67.737-8.85-91.07-22.07-23.317-13.219-37.857-30.818-37.876-48.464.003-12.181 6.973-23.514 18.938-33.095 11.974-9.585 28.965-17.46 49.18-22.771l.258.982zM692.063 198.532a186.421 186.421 0 0 0-11.987-3.462l.25-.982a188.94 188.94 0 0 1 12.05 3.478l-.313.966z"/>
                <path d="M561.018 195.073c-18.273 4.626-33.778 11.32-44.886 19.388-11.114 8.074-17.799 17.493-18.595 27.572a26.9 26.9 0 0 0-.08 2.056c-.022 15.11 13.366 29.131 35.544 39.352C555.16 293.659 586 300.05 620.545 300.05c34.549 0 65.386-6.39 87.545-16.609 22.18-10.224 35.569-24.244 35.547-39.355 0-.68-.028-1.365-.08-2.053-1.138-14.57-14.662-27.794-35.95-37.491l.422-.924c21.42 9.77 35.311 23.15 36.54 38.335.055.715.083 1.426.083 2.133-.022 15.77-13.821 29.983-36.135 40.276-22.336 10.296-53.298 16.7-87.972 16.703-34.673-.003-65.632-6.405-87.968-16.703-22.314-10.29-36.113-24.502-36.135-40.273 0-.71.027-1.42.086-2.136.835-10.496 7.76-20.145 19.007-28.313 11.256-8.174 26.866-14.9 45.233-19.552l.25.985zM693.099 128.785h-.508c0-3.631-1.927-7.137-5.533-10.393-10.812-9.775-36.543-16.778-66.512-16.764-19.981 0-38.071 3.092-51.121 8.068-6.526 2.488-11.788 5.448-15.39 8.696-3.607 3.256-5.534 6.762-5.534 10.393 0 3.63 1.927 7.136 5.533 10.392 10.815 9.777 36.546 16.778 66.512 16.764 19.981 0 38.071-3.092 51.12-8.068 6.527-2.488 11.789-5.448 15.392-8.696 3.606-3.256 5.533-6.762 5.533-10.392H693.606c0 4.01-2.133 7.78-5.869 11.144-11.216 10.082-37.053 17.014-67.191 17.027-20.087 0-38.273-3.1-51.482-8.135-6.606-2.518-11.968-5.52-15.71-8.892-3.736-3.364-5.868-7.134-5.868-11.144 0-4.011 2.132-7.78 5.869-11.145 11.216-10.082 37.055-17.013 67.191-17.027 20.09 0 38.276 3.1 51.484 8.135 6.604 2.518 11.966 5.522 15.707 8.892 3.736 3.364 5.87 7.134 5.87 11.145h-.508z"/>
                <path d="M627.504 135.418a22.936 22.936 0 0 1-3.783.302c-2.882-.008-5.639-.468-7.222-1.4-.85-.508-1.395-1.132-1.407-1.911.02-.877.683-1.523 1.629-2.042.962-.521 2.31-.94 4.01-1.231 1.878-.32 3.889-.47 5.87-.47 4.462.01 8.75.741 11.127 2.148 1.293.774 2.05 1.683 2.06 2.743-.018 1.193-.948 2.15-2.393 2.937-1.461.793-3.544 1.445-6.177 1.895-2.915.496-6.04.729-9.12.729-6.939-.008-13.62-1.165-17.246-3.317-1.983-1.187-3.07-2.54-3.079-4.039.02-1.683 1.362-3.126 3.59-4.34 2.243-1.215 5.472-2.23 9.566-2.927 4.537-.77 9.405-1.137 14.204-1.137 10.803.008 21.224 1.828 26.796 5.148 3.065 1.83 4.665 3.88 4.673 6.06-.02 2.455-2.013 4.655-5.458 6.53-3.464 1.88-8.482 3.461-14.856 4.546-7.07 1.2-14.661 1.77-22.145 1.77-16.847-.01-33.117-2.863-41.732-7.997l.522-.874c8.285 4.968 24.49 7.863 41.21 7.855 7.431 0 14.97-.566 21.976-1.756 6.299-1.07 11.228-2.635 14.542-4.435 3.331-1.805 4.946-3.813 4.926-5.639.011-1.622-1.237-3.43-4.18-5.189-5.242-3.15-15.599-5.012-26.274-5.004-4.746 0-9.564.364-14.035 1.124-4.019.682-7.159 1.68-9.253 2.818-2.11 1.142-3.076 2.393-3.056 3.447-.012.938.726 2.053 2.585 3.168 3.297 1.983 9.913 3.181 16.725 3.173 3.028 0 6.099-.23 8.95-.716 2.557-.432 4.552-1.07 5.864-1.783 1.331-.719 1.88-1.487 1.86-2.047.012-.5-.396-1.17-1.566-1.87-2.05-1.24-6.272-2.013-10.607-2.005-1.93 0-3.886.147-5.7.455-1.622.275-2.884.68-3.697 1.123-.832.447-1.115.904-1.095 1.149-.011.219.188.604.912 1.037 1.254.765 3.947 1.267 6.701 1.26 1.223 0 2.466-.095 3.614-.29l.17 1.002z"/>
            </g>
            <g fill="#1D1D1B">
                <path d="M362.08 619.325c-1.064-4.697-5.073-8.49-11.3-11.118-6.217-2.63-14.596-4.056-24.169-4.054-2.656 0-5.404.112-8.223.331l-.045-.592.495-.331a19.276 19.276 0 0 0 7.994 6.835l.515.236-.22.544-.55-.224.242-.54c1.867.83 3.197 2.027 3.57 3.637.067.288.099.583.099.876-.054 2.88-2.829 5.667-7.161 8.27-4.36 2.59-10.394 4.934-17.257 6.499l-.135-.581v-.597h5.301l-5.164 1.178c-5.27 1.2-10.304 1.784-14.64 1.784l-.634-.007-.588-.009v-.601h.594l-.594.009-.012-.839.595-.008-.595.022c-.015-.331-.02-.657-.02-.984.014-6.47 2.37-11.44 2.359-19.365 0-.763-.02-1.554-.067-2.379-.405-7.43-7.179-23.698-13.857-37.957a666.55 666.55 0 0 0-9.126-18.684 514.01 514.01 0 0 0-4.12-7.968l.527-.282.007.597c-.317.003-.633.007-.946.007-7.782 0-14.621-1.151-19.79-3.336-5.162-2.175-8.717-5.423-9.687-9.662l-5.198-22.79 1.16-.267 5.2 22.79c.841 3.714 4.016 6.732 8.988 8.834 4.96 2.097 11.663 3.242 19.327 3.237.311 0 .622-.002.933-.004l.364-.003.17.318c.002.007 6.58 12.394 13.271 26.707 6.691 14.34 13.497 30.497 13.966 38.394.047.847.072 1.66.072 2.448-.01 8.185-2.374 13.23-2.361 19.365 0 .311.007.622.02.94v.008l.011.843V630.877h-.597l.01-.597.619.004c4.23 0 9.184-.57 14.373-1.753l.134.582v.597H300.64l5.162-1.179c6.759-1.54 12.7-3.852 16.913-6.358 4.24-2.493 6.63-5.247 6.58-7.248l-.07-.61c-.24-1.085-1.2-2.055-2.894-2.817l-.524-.237.222-.546.552.224-.248.543a20.517 20.517 0 0 1-8.49-7.26l-.56-.844 1.01-.08c2.848-.227 5.63-.336 8.317-.336 9.692 0 18.207 1.433 24.633 4.145 6.416 2.707 10.805 6.734 11.996 11.952l-1.16.266zM311.725 480.994l.581-.132a5.3 5.3 0 0 1 .134 1.201c-.053 3.973-3.995 8.001-10.264 11.748-6.29 3.736-15.028 7.123-24.963 9.39-7.669 1.749-14.984 2.587-21.273 2.587-5.421-.002-10.078-.622-13.566-1.842-3.467-1.219-5.862-3.065-6.468-5.656a5.433 5.433 0 0 1-.132-1.203c.052-3.97 3.993-8 10.26-11.749 6.291-3.733 15.028-7.118 24.964-9.387 7.666-1.749 14.98-2.585 21.268-2.585 5.423 0 10.085.617 13.57 1.838 3.47 1.218 5.867 3.067 6.47 5.658l-.581.132-.581.132c-.436-1.965-2.393-3.635-5.704-4.798-3.29-1.155-7.842-1.772-13.174-1.77-6.182 0-13.419.825-21.002 2.557-9.83 2.24-18.474 5.596-24.622 9.247-6.173 3.638-9.73 7.633-9.676 10.725 0 .317.034.628.105.936.436 1.97 2.388 3.638 5.699 4.798 3.293 1.156 7.84 1.775 13.17 1.775 6.184 0 13.421-.827 21.009-2.56 9.828-2.24 18.473-5.598 24.621-9.248 6.173-3.636 9.73-7.63 9.676-10.725 0-.32-.033-.63-.102-.937l.58-.132z"/>
                <path d="m320.698 486.625.582-.132c.172.756.257 1.527.257 2.303-.022 5.72-4.512 11.594-11.805 16.75-7.31 5.15-17.505 9.584-29.189 12.251-7.304 1.663-14.384 2.455-20.818 2.455-7.778 0-14.613-1.15-19.782-3.334-5.157-2.175-8.71-5.428-9.682-9.665a10.333 10.333 0 0 1-.257-2.298c.022-5.723 4.509-11.596 11.804-16.752 7.31-5.149 17.505-9.586 29.19-12.254 7.3-1.663 14.381-2.454 20.815-2.454 7.778.002 14.613 1.153 19.784 3.333 5.16 2.18 8.712 5.428 9.683 9.665l-.582.132-.58.132c-.844-3.71-4.014-6.727-8.984-8.829-4.96-2.1-11.661-3.242-19.32-3.242-6.339 0-13.332.78-20.55 2.428-11.553 2.634-21.622 7.025-28.767 12.066-7.164 5.037-11.324 10.723-11.302 15.775 0 .687.078 1.364.23 2.035.841 3.71 4.011 6.727 8.983 8.83 4.96 2.098 11.657 3.24 19.317 3.24 6.338 0 13.336-.78 20.555-2.428 11.55-2.633 21.62-7.022 28.766-12.061 7.163-5.04 11.322-10.727 11.3-15.775a9.18 9.18 0 0 0-.229-2.04l.581-.131zM251.315 645.576l5.57 24.42c1.068 4.698 5.072 8.49 11.299 11.123 6.22 2.627 14.596 4.056 24.17 4.056 7.92 0 16.66-.977 25.679-3.034 14.433-3.291 27.018-8.775 35.954-15.075 8.958-6.305 14.188-13.426 14.165-19.81a11.6 11.6 0 0 0-.286-2.576l-5.583-24.472 1.16-.266 5.586 24.474c.21.934.315 1.885.315 2.84-.02 7.057-5.58 14.363-14.666 20.78-9.106 6.416-21.812 11.945-36.38 15.27-9.103 2.074-17.925 3.06-25.944 3.06-9.692 0-18.206-1.435-24.633-4.147-6.414-2.707-10.803-6.734-11.997-11.956l-5.569-24.42 1.16-.267zM305.82 628.519c6.759-1.543 12.701-3.855 16.913-6.363 4.241-2.493 6.634-5.245 6.58-7.248l-.07-.61c-.24-1.083-1.198-2.05-2.897-2.818l-.68-.304.457-.608.476.358-.248.541c-5.57-2.564-9.936-7.592-11.404-14.036-.289-1.263-.396-2.53-.396-3.773 0-2.214.342-4.355.648-6.27v-.01l.002-.012c.097-.478.794-5.419 1.769-12.457 1.469-10.579 3.58-25.992 5.323-38.76.874-6.383 1.654-12.108 2.216-16.233l.907-6.66 1.18.16s-2.45 18-4.95 36.268c-1.251 9.135-2.514 18.337-3.496 25.386-.979 7.067-1.663 11.932-1.78 12.529l-.583-.116.586.094c-.304 1.913-.628 3.988-.628 6.08 0 1.174.1 2.35.366 3.508 1.384 6.07 5.491 10.801 10.736 13.22l.67.306-.449.604-.478-.358.244-.545c1.869.84 3.201 2.032 3.574 3.644.065.286.097.579.097.872-.052 2.88-2.829 5.667-7.161 8.274-4.358 2.591-10.394 4.932-17.257 6.497l-.267-1.16zM238.18 533.155l6.278 9.5c5.663 8.566 14.188 21.46 21.418 32.372 3.617 5.46 6.908 10.42 9.359 14.098 2.443 3.673 4.07 6.099 4.285 6.385l.005.005.007.01c1.728 2.487 3.78 5.431 4.587 8.939.347 1.527.514 3.056.514 4.563 0 4.834-1.728 9.423-4.703 13.027l-.459-.38.42-.422.012.01.389.39-.356.418c-.981 1.16-1.46 2.254-1.455 3.186l.065.606-1.16.268a3.997 3.997 0 0 1-.097-.874c.002-1.342.653-2.67 1.737-3.955l.456.384-.422.423-.011-.011-.385-.385.344-.418a19.265 19.265 0 0 0 4.432-12.267c0-1.42-.155-2.857-.486-4.3-.733-3.212-2.673-6.04-4.4-8.52l.49-.341-.478.357c-.362-.485-3.088-4.574-7.036-10.516-11.816-17.792-34.344-51.895-34.344-51.895l.994-.657z"/>
                <path d="M285.717 631.089c-2.249-.342-4.144-.903-5.587-1.706-1.43-.798-2.448-1.878-2.758-3.24v.005a3.876 3.876 0 0 1-.1-.877c.004-1.345.656-2.671 1.734-3.957l.458.385-.425.422-.01-.01-.38-.385.344-.416a19.355 19.355 0 0 0 4.238-9.627l.59.083.215.556c-9.973 3.861-18.317 8.75-24.138 13.958-5.833 5.213-9.095 10.729-9.084 15.788 0 .872.092 1.728.284 2.571l-1.16.266a12.63 12.63 0 0 1-.318-2.837c.01-5.589 3.521-11.341 9.482-16.676 5.967-5.336 14.424-10.277 24.505-14.18l.946-.367-.141 1.003a20.54 20.54 0 0 1-4.5 10.222l-.459-.382.42-.418.012.01.384.388-.349.415c-.981 1.163-1.46 2.252-1.455 3.188l.067.606v.005c.21.92.919 1.75 2.182 2.461 1.254.7 3.03 1.239 5.182 1.568l-.179 1.178zM342.065 645.582a75.058 75.058 0 0 0 4.196-2.555l.653 1a76.558 76.558 0 0 1-4.26 2.593l-.589-1.038zM251.101 644.642c1.069 4.697 5.073 8.491 11.302 11.125 6.217 2.627 14.596 4.053 24.174 4.053 7.917 0 16.656-.975 25.672-3.031 7.839-1.789 15.134-4.224 21.593-7.083l.483 1.09c-6.535 2.894-13.9 5.35-21.81 7.157-9.101 2.075-17.923 3.061-25.938 3.061-9.696-.004-18.212-1.435-24.64-4.152-6.414-2.707-10.802-6.734-11.996-11.954l1.16-.266zM351.878 638.903c6.705-5.56 10.503-11.548 10.492-17.005 0-.867-.096-1.724-.288-2.571l1.162-.262c.213.933.318 1.878.318 2.833-.014 6.027-4.09 12.24-10.922 17.924l-.762-.92zM321.297 486.478l5.198 22.79c.172.758.257 1.53.257 2.303-.022 5.72-4.51 11.596-11.804 16.75-7.309 5.15-17.504 9.584-29.187 12.251a102.413 102.413 0 0 1-10.135 1.782l-.143-1.183c3.256-.404 6.61-.986 10.012-1.761 11.55-2.634 21.621-7.025 28.766-12.064 7.163-5.037 11.322-10.725 11.3-15.775 0-.689-.074-1.366-.226-2.037l-5.198-22.79 1.16-.266z"/>
            </g>
            <g fill="#1D1D1B">
                <path d="m125 278.737-.49-.598c5.532-4.488 16.03-8.113 29.546-10.473l.132.763-.104.766c-12.28-1.71-22.191-4.183-28.49-7.181l.333-.699.771.02c-.076 3.22-.297 9.414-.927 17.463l-.77-.06-.49-.599.49.598-.772-.06c.63-8.017.851-14.183.924-17.382l.028-1.192 1.08.514c6.033 2.886 15.852 5.359 28.032 7.045l4.901.682-4.873.847c-13.372 2.312-23.733 5.97-28.831 10.144l-1.401 1.14.14-1.798.771.06zM254.953 281.495h-.775c0-8.386-.204-15.339-.245-17.96l.775-.012.245.735c-7 2.332-16.467 4.235-27.558 5.531l-.089-.766.153-.76c7.21 1.442 13.396 3.28 18.2 5.428 4.802 2.156 8.25 4.593 9.956 7.407l-.662.397h-.775.775l-.662.398c-1.397-2.349-4.6-4.713-9.261-6.789-4.657-2.083-10.747-3.898-17.876-5.323l-4.785-.96 4.85-.565c11.01-1.289 20.4-3.183 27.244-5.468l1.004-.333.012 1.056c.036 2.597.245 9.574.245 17.984v2.79l-1.433-2.392.662-.398zM135.985 234.45l-.771.06c-1.309-16.463-7.784-47.746-15.56-69.119-4.973-13.7-13.484-30.517-14.495-43.977a37.42 37.42 0 0 1-.1-2.737c.02-16.327 10.958-26.41 17.935-29.43l.305.711-.762.129-.14-.831.762-.129.044.77c-9.667.55-17.68 2.185-23.412 5.79-5.724 3.608-9.28 9.112-10.184 17.831a39.257 39.257 0 0 0-.2 3.95c-.017 11.216 4.961 24.335 17.526 57.393l-.723.273.703-.317c.016.036 13.408 29.642 18.526 63.695l-.763.117-.365-.683c2.934-1.561 6.808-2.978 11.473-4.243l.2.747-.77.06.77-.06.201.746c-4.584 1.24-8.37 2.634-11.148 4.115l-.963.514-.16-1.08c-2.542-16.9-7.146-32.737-11.112-44.338a278.209 278.209 0 0 0-5.139-13.834c-1.328-3.291-2.155-5.114-2.155-5.122l-.012-.02-.008-.024c-12.545-33.046-17.611-46.213-17.627-57.939 0-1.38.072-2.742.209-4.102.907-9.069 4.78-15.167 10.902-18.988 6.11-3.83 14.356-5.46 24.143-6.022l.69-.04.257 1.514.1.598-.558.24c-6.463 2.783-17.024 12.441-17.004 28.009 0 .855.032 1.73.1 2.625.94 12.946 9.37 29.754 14.407 43.56 7.84 21.568 14.316 52.848 15.648 69.527l.048.639-.618.168-.2-.746z"/>
                <path d="m171.911 229.11-.77.056c-.751-10.626-1.004-20.963-1.004-30.927.004-19.562.96-37.686.96-53.711 0-4.099-.061-8.065-.218-11.879-.955-23.315-19.357-37.879-36.104-37.875-1.044 0-2.08.056-3.103.169-3.236.353-8.001 2.268-11.887 6.01-3.886 3.744-6.94 9.276-6.945 17.02 0 2.95.446 6.226 1.474 9.843 1.947 6.885 8.18 20.072 14.447 38.012 6.27 17.952 12.581 40.717 14.729 66.959l-.771.064-.157-.755c8.266-1.722 18.246-3.023 29.297-3.757l.052.77-.77.057.77-.057.052.771c-10.995.735-20.91 2.027-29.087 3.725l-.856.181-.072-.871c-2.131-26.073-8.402-48.706-14.644-66.578-6.246-17.887-12.444-30.954-14.476-38.096-1.063-3.745-1.533-7.161-1.533-10.268-.008-8.165 3.268-14.15 7.422-18.137 4.16-3.986 9.153-6.017 12.786-6.427 1.08-.12 2.172-.18 3.272-.18 17.61.004 36.642 15.214 37.646 39.356.16 3.842.22 7.828.22 11.943 0 16.085-.959 34.198-.959 53.711 0 9.94.25 20.236 1 30.814l.056.775-.775.052-.052-.77z"/>
                <path d="m178.318 146.648.77.036c-.541 11.264-.738 22.914-.738 33.845 0 21.79.775 40.737 1.124 48.168l-.77.036-.037-.77c4.669-.21 9.49-.318 14.432-.318 2.838 0 5.628.036 8.386.108l-.02.771-.771-.028c.967-26.896 4.769-47.47 7.976-78.456a62.15 62.15 0 0 0 .346-6.531c-.008-18.21-8.35-31.34-20.096-40.1-11.742-8.747-26.908-13.05-40.356-13.375l.02-.77.767.108-.137.975-.767-.108.261-.727c12.425 4.408 30.545 17.486 30.505 52.062 0 1.654-.04 3.356-.124 5.11l-.771-.036-.77-.036c.08-1.73.124-3.408.124-5.038-.04-34.001-17.515-46.273-29.486-50.609l-.59-.212.221-1.598.097-.683.69.02c13.741.338 29.176 4.701 41.24 13.681 12.062 8.968 20.73 22.633 20.717 41.336 0 2.163-.112 4.395-.353 6.692-3.22 31.05-7.01 51.584-7.973 78.351l-.028.767-.762-.024a335.352 335.352 0 0 0-8.346-.105c-4.918 0-9.715.105-14.36.314l-.77.036-.036-.771c-.35-7.447-1.128-26.414-1.128-48.24 0-10.951.196-22.62.742-33.917l.771.036zM218.077 229.387l-.607.482c-2.962-3.753-5.062-10.277-5.082-10.313l.735-.24.77.076c-.26 2.585-.485 7.438-.577 9.638l-.771-.032.044-.77c1.883.111 3.733.244 5.548.388l-.06.771-.607.482.607-.482-.06.77a279.195 279.195 0 0 0-5.52-.388l-.755-.045.032-.758c.093-2.216.313-7.061.578-9.727l.366-3.657 1.14 3.492c0 .004.521 1.598 1.393 3.641.867 2.04 2.095 4.517 3.432 6.19l1.104 1.393-1.77-.14.06-.77zM127.655 285.247l.679-.361c.36.758 2.115 2.115 5.034 3.428 8.775 4.022 27.92 8.546 54.036 8.542h.334c19.907-.028 34.944-2.416 45.12-5.238 5.087-1.41 8.96-2.93 11.602-4.308 1.32-.686 2.332-1.336 3.027-1.903.694-.558 1.048-1.055 1.1-1.26l.73.233-.762.088c.008-.096-.201-.542-.763-1.072-1.955-1.906-7.6-4.901-17.165-7.322-9.57-2.437-23.103-4.363-40.99-4.363h-.366c-20.188.028-35.137 2.529-45.201 5.535-5.03 1.502-8.836 3.136-11.453 4.633-2.621 1.477-4.022 2.918-4.24 3.629l-.722-.261.679-.361-.679.36-.722-.26c.554-1.43 2.171-2.838 4.921-4.436 8.246-4.713 26.94-10.325 57.417-10.373h.365c20.57 0 35.463 2.533 45.298 5.5 4.918 1.485 8.567 3.079 11.051 4.536 1.24.73 2.188 1.425 2.87 2.08.671.662 1.12 1.26 1.225 1.999l.016.164-.048.157c-.245.714-.79 1.316-1.594 1.983-2.814 2.28-9.18 5.158-19.289 7.547-10.1 2.38-23.9 4.219-41.427 4.247h-.334c-17.534 0-31.95-2.015-42.299-4.585-5.178-1.284-9.333-2.71-12.376-4.098-3.039-1.417-4.961-2.69-5.752-4.099l-.157-.3.113-.322.722.26zM119.633 245.12c0 .911.405 1.85 1.309 2.846 3.15 3.532 12.316 6.945 25.077 9.285 12.77 2.372 29.184 3.806 47.08 3.806 20.45 0 38.967-1.871 52.323-4.878 6.672-1.497 12.059-3.292 15.716-5.238 1.826-.972 3.215-1.98 4.115-2.975.903-.996 1.308-1.935 1.308-2.846h1.546c0 1.393-.634 2.71-1.71 3.886-3.77 4.086-13.035 7.346-25.937 9.766-12.894 2.393-29.385 3.826-47.36 3.83-20.55-.004-39.153-1.875-52.665-4.913-6.76-1.522-12.243-3.332-16.105-5.384-1.927-1.027-3.457-2.115-4.532-3.3-1.076-1.176-1.71-2.492-1.71-3.885h1.545z"/>
                <path d="M126.107 260.552c11.578 5.608 37.265 9.594 66.987 9.582 20.453 0 38.971-1.867 52.327-4.874 6.676-1.501 12.063-3.291 15.716-5.238 1.83-.972 3.22-1.983 4.119-2.975.903-1 1.308-1.935 1.308-2.85h1.546c0 1.397-.634 2.71-1.71 3.89-3.77 4.082-13.035 7.342-25.94 9.763-12.895 2.396-29.386 3.83-47.366 3.83-29.886-.013-55.606-3.935-67.657-9.735l.67-1.393z"/>
                <path d="m218.115 149.358.77.017a98.688 98.688 0 0 1-.477 7.864l-.767-.077.77.065-2.56 30.693 4.239 3.131-.566 22.264-.77-.02.77-.049c0 .004.048.803.249 2.1.3 1.939.943 4.938 2.24 7.727 1.296 2.798 3.223 5.348 6.03 6.552l.132.06.112.108-.542.55.092-.766c11.81 1.405 21.75 3.504 28.795 6.077 3.525 1.289 6.327 2.694 8.302 4.24 1.963 1.533 3.167 3.275 3.171 5.226v9.077c.004 1.116-.417 2.175-1.116 3.143l-.626-.454h.77c.02 13.645.74 67.987.74 72.563 0 4.22-.767 29.847-.767 39.124 0 .991.008 1.79.028 2.348.184 5.524.855 13.2 1.481 19.486.622 6.286 1.2 11.171 1.2 11.18l.004.015v.02l.008.241c.004 1.301-.827 2.293-1.826 2.847-1.012.574-2.244.835-3.444.839-.964-.004-1.907-.173-2.706-.57-.787-.386-1.477-1.08-1.622-2.048l.763-.116-.755.168c-3.18-14.447-5.572-63.446-5.58-76.312 0-6.632-.2-23.729-.393-38.622l.775-.012.67.386c-2.24 3.83-7.66 7.025-15.343 9.69-7.691 2.654-17.675 4.709-29.047 5.913l-.08-.766h.77c.02 11.641.333 30.027 1.802 56.345l.169 3.24.004.152c.012 1.06-.682 1.874-1.493 2.296-.823.437-1.815.622-2.826.626-1.104-.004-2.228-.225-3.164-.718-.923-.478-1.726-1.33-1.794-2.501l.77-.048-.77.068c-.29-3.256-2.85-36.093-4.067-58.61l.771-.04.044.771c-4.415.257-8.988.398-13.664.398-5.805 0-11.425-.217-16.788-.61l.056-.771.77-.016c.318 15.62.635 31.191.635 35.984 0 .947.004 2.28.004 3.938 0 15.166-.08 57.582-1.67 84.016-.076 1.333-.988 2.308-2.067 2.87-1.092.578-2.421.84-3.718.843-1.192-.004-2.36-.22-3.311-.734-.944-.49-1.723-1.414-1.715-2.614l.008-.196.771.06-.77-.048c.481-7.812.666-16.339.666-24.87 0-26.807-1.823-53.558-1.963-58.239-.109-3.38-.434-23.291-.735-42.283l.775-.012-.108.767c-16.812-2.357-29.666-6.576-35.306-12.023l.537-.554.767.084c-1.461 13.175-3.934 28.907-8.137 44.198a3692.19 3692.19 0 0 0-9.935 36.936 3278.444 3278.444 0 0 0-4.143 15.848l-.008.032-.008.029c-.35 1.015-1.092 1.734-1.939 2.147-.847.422-1.802.582-2.734.582-1.116-.004-2.2-.229-3.07-.618-.438-.197-.824-.43-1.137-.743-.309-.305-.566-.73-.57-1.248l.052-.385.747.2-.75-.184c.003-.016 1.56-6.343 4.166-17.406 2.602-11.068 6.25-26.86 10.417-45.752 5.5-24.933 6.431-46.297 6.431-57.886 0-5.925-.24-9.27-.24-9.277l.77-.057-.205.747c-1.176-.357-1.738-1.373-2.115-2.188-.37-.835-.514-1.57-.522-1.601l.759-.153-.755.169c-.185-.851-1.345-4.649-2.946-9.743-2.405-7.655-5.845-18.358-8.68-27.145a10896.92 10896.92 0 0 0-5.07-15.652l-.152-.47 6.282-5.893.53.562-.742.213c-6.857-24.062-22.485-54.458-22.509-78.95 0-3.115.253-6.133.82-9.04 1.192-6.174 3.76-13.428 11.44-19.04 7.675-5.612 20.325-9.57 41.596-9.57.783 0 1.578.004 2.381.016 10.277.137 25.102.727 39.71 5.97 10.858 3.901 21.496 10.06 29.662 19.349a57.179 57.179 0 0 1 6.21 8.578c5.909 9.952 8.67 21.581 8.67 34.182 0 .594-.007 1.188-.02 1.787l-.77-.017-.775-.016c.012-.586.02-1.172.02-1.754 0-12.376-2.71-23.716-8.454-33.395a55.904 55.904 0 0 0-6.042-8.346c-7.944-9.04-18.35-15.078-29.023-18.915-14.331-5.147-28.976-5.745-39.208-5.877-.799-.012-1.586-.016-2.36-.016-21.092-.004-33.404 3.938-40.686 9.273-7.274 5.335-9.658 12.075-10.834 18.088-.542 2.79-.791 5.713-.791 8.743-.024 23.882 15.5 54.262 22.448 78.525l.128.453-6.266 5.881-.53-.562.735-.237s3.97 12.216 8.048 24.901a3763.61 3763.61 0 0 1 5.709 17.912c1.61 5.126 2.75 8.84 2.978 9.867l.005.016.096.382c.1.361.297.923.566 1.38.269.474.606.78.867.84l.526.144.04.546c0 .016.245 3.424.245 9.39 0 11.67-.935 33.138-6.467 58.215-8.342 37.807-14.592 63.194-14.592 63.198l-.004.012v.004l-.06-.016h.06v.016l-.06-.016h.06l.008.02c.028.1.417.446 1.031.662.607.233 1.405.382 2.192.382.75 0 1.486-.137 2.048-.418.566-.289.95-.674 1.164-1.272l.73.253-.75-.193c.004-.004 6.354-24.68 14.082-52.809 4.179-15.178 6.64-30.838 8.097-43.956l.172-1.574 1.132 1.104c5.07 4.978 17.796 9.305 34.443 11.597l.659.093.008.662c.3 18.984.626 38.919.73 42.259.14 4.596 1.967 31.432 1.967 58.288 0 8.55-.184 17.109-.67 24.965v.012l-.004.076c.012.526.265.891.903 1.257.626.345 1.586.55 2.577.546 1.08.004 2.2-.237 2.991-.663.807-.437 1.212-.955 1.252-1.597 1.586-26.354 1.666-68.77 1.666-83.924 0-1.658-.004-2.987-.004-3.938 0-4.753-.317-20.34-.634-35.952l-.016-.847.847.06c5.323.393 10.911.606 16.676.606 4.644 0 9.188-.136 13.576-.393l.775-.044.04.774c1.216 22.477 3.777 55.334 4.066 58.553v.02c.033.482.33.88.98 1.233.634.341 1.553.542 2.437.538.81.004 1.593-.169 2.087-.442.51-.293.679-.55.687-.935v-.069l-.17-3.24c-1.468-26.345-1.785-44.759-1.806-56.428v-.695l.695-.072c11.28-1.2 21.168-3.24 28.702-5.841 7.54-2.581 12.694-5.793 14.508-9l1.405-2.44.036 2.817c.193 14.897.394 31.986.394 38.642-.004 12.705 2.42 61.889 5.543 75.975l.004.024.005.028c.056.35.28.635.79.9.498.253 1.237.405 2.012.405.963.004 1.979-.233 2.677-.634.707-.422 1.044-.887 1.048-1.506l-.004-.128.77-.056-.766.092c0-.012-2.32-19.618-2.69-30.798a63.937 63.937 0 0 1-.032-2.4c0-9.322.767-34.973.767-39.124 0-4.544-.719-58.902-.739-72.563v-.249l.149-.2c.562-.787.823-1.518.823-2.24v-9.077c.008-1.252-.795-2.61-2.578-4.01-5.33-4.211-18.746-7.924-36.33-10l-.26-.032-.197-.193.542-.55-.305.71c-4.416-1.922-6.72-6.406-7.98-10.312-1.257-3.922-1.466-7.354-1.47-7.39l-.004-.032.546-21.497-4.287-3.163 2.637-31.573-.004.008a95.68 95.68 0 0 0 .47-7.744l.775.016z"/>
            </g>
        </g>
    </g>
</svg>
